HIERARCHY
ROOT Hips
{
  OFFSET 0 0 0
  CHANNELS 6 Xposition Yposition Zposition Zrotation Yrotation Xrotation
  JOINT LeftThigh
  {
    OFFSET 8.409438 0 -5.917753
    CHANNELS 3 Zrotation Yrotation Xrotation
    JOINT LeftLeg
    {
      OFFSET 0 0 -42.358652
      CHANNELS 3 Zrotation Yrotation Xrotation
      JOINT LeftFoot
      {
        OFFSET 0 0 -39.357303
        CHANNELS 3 Zrotation Yrotation Xrotation
      }
    }
  }
  JOINT RightThigh
  {
    OFFSET -8.409438 0 -5.917753
    CHANNELS 3 Zrotation Yrotation Xrotation
    JOINT RightLeg
    {
      OFFSET 0 0 -42.358652
      CHANNELS 3 Zrotation Yrotation Xrotation
      JOINT RightFoot
      {
        OFFSET 0 0 -39.357303
        CHANNELS 3 Zrotation Yrotation Xrotation
      }
    }
  }
  JOINT SpineLow
  {
    OFFSET 0 0 4.719101
    CHANNELS 3 Zrotation Yrotation Xrotation
    JOINT SpineMid
    {
      OFFSET 0 0 12.899191
      CHANNELS 3 Zrotation Yrotation Xrotation
      JOINT Chest
      {
        OFFSET 0 0 12.899191
        CHANNELS 3 Zrotation Yrotation Xrotation
        JOINT LeftShoulder
        {
          OFFSET 7.550562 1.41573 9.438202
          CHANNELS 3 Zrotation Yrotation Xrotation
          JOINT LeftArm
          {
            OFFSET 9.155056 0 4.247191
            CHANNELS 3 Zrotation Yrotation Xrotation
            JOINT LeftForearm
            {
              OFFSET 0 0 25.771955
              CHANNELS 3 Zrotation Yrotation Xrotation
              JOINT LeftHand
              {
                OFFSET 0 0 25.197169
                CHANNELS 3 Zrotation Yrotation Xrotation
              }
            }
          }
        }
        JOINT RightShoulder
        {
          OFFSET -7.550562 1.41573 9.438202
          CHANNELS 3 Zrotation Yrotation Xrotation
          JOINT RightArm
          {
            OFFSET -9.155056 0 4.247191
            CHANNELS 3 Zrotation Yrotation Xrotation
            JOINT RightForearm
            {
              OFFSET 0 0 -25.771955
              CHANNELS 3 Zrotation Yrotation Xrotation
              JOINT RightHand
              {
                OFFSET 0 0 -25.197169
                CHANNELS 3 Zrotation Yrotation Xrotation
              }
            }
          }
        }
        JOINT Neck
        {
          OFFSET 0 0 15.101124
          CHANNELS 3 Zrotation Yrotation Xrotation
          JOINT Head
          {
            OFFSET 0 0 11.325843
            CHANNELS 3 Zrotation Yrotation Xrotation
            End Site
            {
              OFFSET 0 0 14.157303
            }
          }
        }
      }
    }
  }
}
MOTION
Frames: 7
Frame Time: 0.0
0.0  101.685394  0.0  3.283494  22.461303  -95.149874  -0.734226  -16.945403  -1.241339  -8.295073  14.728838  20.743128  1.147647  3.167116  3.440693  -24.095372  16.81506  -4.156962  0.506944  2.657852  17.382541  0.271431  1.194615  -2.057956  0.007819  0.205739  2.311785  0.041004  0.561031  6.31924  0.041004  0.561031  6.31924  6.435956  12.235161  11.45946  143.827628  18.935071  172.946709  -25.103687  19.791329  84.668252  38.500254  -26.119625  21.265308  6.0509  -9.916975  16.054599  71.643211  43.977359  35.937496  0.752678  3.736021  -16.688442  87.37564  -4.155725  8.187029  -8.065744  -1.094638  1.431243  -6.0466  -0.840047  1.059169  
0.0  101.685394  0.0  3.239753  22.294037  -95.208851  -0.708301  -17.007205  -1.250541  -8.136463  14.755554  20.950962  1.138089  3.185988  3.418809  -24.249343  16.770385  -4.249683  0.807068  2.644264  17.463469  0.265106  1.210865  -2.053363  0.020603  0.183697  2.329195  0.073938  0.4996  6.36689  0.073938  0.4996  6.36689  6.339349  12.185982  11.494738  143.878098  18.835436  172.930776  -25.040072  19.673204  84.800401  38.627357  -26.177351  21.16923  5.972396  -9.835595  16.142594  72.377337  43.859471  36.375048  0.507092  3.935758  -16.581964  87.528514  -4.208967  7.798627  -7.927374  -1.090728  1.365964  -5.942949  -0.835937  1.010493  
0.0  101.685394  0.0  3.206557  22.101307  -95.280862  -0.739932  -17.027804  -1.244806  -7.943395  14.766641  21.14811  1.136528  3.21071  3.397916  -24.348787  16.748537  -4.300839  1.040358  2.639112  17.521605  0.329879  1.22964  -2.049631  0.021938  0.159544  2.343622  0.075352  0.433501  6.406285  0.075352  0.433501  6.406286  6.36433  12.197434  11.584761  143.973884  18.843755  172.92405  -24.951032  19.639056  84.882807  38.724299  -26.145443  21.173271  6.048895  -9.719888  16.28267  72.195195  44.011981  36.349805  0.804129  4.313808  -16.703586  87.628519  -4.22054  7.357284  -7.710318  -1.020488  1.323634  -5.780408  -0.782218  0.980008  
0.0  101.685394  0.0  3.128174  21.874169  -95.393269  -0.699368  -17.109758  -1.150917  -7.623156  14.736844  21.418359  1.029873  3.225305  3.301696  -24.522973  16.687763  -4.391873  1.303561  2.632328  17.611226  0.456353  1.273541  -2.029638  0.030014  0.13473  2.359713  0.095089  0.364943  6.450267  0.095089  0.364943  6.450267  6.334892  12.141506  11.647495  144.069292  18.803034  172.921534  -24.928365  19.707107  84.960568  38.844196  -26.139465  21.084591  6.160683  -9.662399  16.425813  72.008124  44.099141  36.333585  0.901366  4.771268  -16.90895  87.685397  -4.148655  6.826444  -7.477608  -0.971838  1.300226  -5.606034  -0.744924  0.963424  
0.0  101.685394  0.0  3.107408  21.715469  -95.467621  -0.810292  -17.097089  -1.104556  -7.360458  14.718241  21.602267  1.004034  3.253771  3.256843  -24.552438  16.669829  -4.429759  1.480261  2.642082  17.686536  0.504306  1.295485  -2.02085  0.020137  0.110881  2.370953  0.065846  0.300773  6.480898  0.065846  0.300773  6.480898  6.396422  12.172086  11.748825  144.202285  18.794769  172.906405  -24.864531  19.822812  85.023605  38.900863  -26.070486  21.105291  6.234433  -9.519438  16.542688  71.508696  44.224085  36.134648  1.119782  5.366321  -17.326983  87.795967  -3.987384  6.141532  -7.222936  -0.887573  1.275359  -5.41527  -0.68087  0.946165  
0.0  101.685394  0.0  3.025979  21.441427  -95.606609  -0.656493  -17.206364  -0.918793  -7.052636  14.691307  21.812227  0.782098  3.247195  3.099651  -24.553741  16.606036  -4.484556  1.709633  2.640189  17.808605  0.580808  1.333166  -2.008349  0.037539  0.088218  2.3965  0.111231  0.237146  6.550752  0.111231  0.237146  6.550753  6.270828  12.098858  11.752036  144.353176  18.74243  172.920339  -24.933119  20.00558  85.04037  38.934859  -25.96259  21.132153  6.32945  -9.445294  16.626231  71.090433  44.275521  35.99133  1.0126  6.040061  -17.874647  87.972496  -3.756003  5.248947  -6.987457  -0.838984  1.247865  -5.238812  -0.643609  0.926433  
0.0  101.685394  0.0  3.03295  21.342774  -95.642404  -0.723723  -17.190222  -0.903085  -6.864695  14.701977  21.941655  0.747126  3.263808  3.058502  -24.490303  16.595622  -4.526646  1.815041  2.648573  17.905955  0.566586  1.35948  -2.005255  0.01573  0.06976  2.408708  0.049892  0.188898  6.584025  0.049892  0.188898  6.584025  6.331802  12.144322  11.856856  144.527814  18.738003  172.942695  -24.90305  20.174705  85.064575  38.926569  -25.817257  21.202171  6.349691  -9.288072  16.646871  70.602078  44.296556  35.803859  0.923202  6.839895  -18.657479  88.246466  -3.498335  4.243101  -6.737036  -0.775151  1.203113  -5.051198  -0.594714  0.893904  
